<svg xmlns="http://www.w3.org/2000/svg" viewBox="0 0 408.7 332.79"><defs><style>.cls-1{fill:#fff;}</style></defs><g id="Layer_2" data-name="Layer 2"><g id="Layer_1-2" data-name="Layer 1"><g id="Layer_2-2" data-name="Layer 2"><g id="Layer_1-2-2" data-name="Layer 1-2"><path class="cls-1" d="M0,295.29c45.81,4.12,86.28-6.91,123.07-34.51-38.31-3.46-63.83-22.77-78.2-58.56,12.74,1.46,24.57,1.73,37.42-1.69-20.19-5-36.07-14.77-48.28-30.16a82.44,82.44,0,0,1-18.22-52.66c6.1,2.32,11.78,4.94,17.74,6.6s12.19,2.35,18.36,3.11C15.48,96.25,7,59.34,27.38,15,73.19,68.94,130.5,98.46,200.14,103.15c-.31-8.35-1-16.29-.8-24.2,1-34.53,27.44-67.32,60.94-75.84q46.5-11.79,81.54,21.13c1.74,1.63,3.19,2.28,5.62,1.51,8.37-2.65,17-4.57,25.18-7.65S388.62,10.87,397,7a64.37,64.37,0,0,1-13.31,25c-6.25,7.14-13.44,13.45-20.07,20,14.93-1.67,29.73-6.34,45.05-12.47C398,55.26,386,68.45,371.54,79.16c-3.67,2.71-4.62,5.56-4.53,10,.8,38.54-7.73,75.11-24.44,109.74-20.05,41.57-49.18,75.22-88.57,99.61-28.05,17.37-58.59,27.71-91.26,32a249,249,0,0,1-85.47-3.17A234.07,234.07,0,0,1,1.82,296.63,18.24,18.24,0,0,1,0,295.29Z"/></g></g></g></g></svg>