<?xml version="1.0" encoding="utf-8"?>
<!-- Generator: Adobe Illustrator 25.4.1, SVG Export Plug-In . SVG Version: 6.00 Build 0)  -->
<svg version="1.1" id="Layer_1" xmlns="http://www.w3.org/2000/svg" xmlns:xlink="http://www.w3.org/1999/xlink" x="0px" y="0px"
	 viewBox="0 0 409.6 409.6" style="enable-background:new 0 0 409.6 409.6;" xml:space="preserve">
<g id="Layer_2_00000083068898155186067180000005584348482331346841_">
	<g id="Layer_1-2">
		<path d="M409.6,220c-0.8,6.5-1.4,12.9-2.3,19.4c-3.9,28.6-14,56-29.5,80.4c-19.3,30.5-44.8,54.5-76.6,71.4
			c-9.8,5-20,9.5-30.3,13.3c-8.9,3.5-15.2-1.4-15.2-11.1c0-17.6,0.2-35.2,0.2-52.8c0-9.8-1.1-19.5-5.6-28.4c-2-4-4.8-7.5-7.3-11.5
			c7.2-1.3,14.5-2.3,21.8-3.9c20.3-4.7,38.5-13.3,51.7-30.3c9.6-12.3,14.6-26.5,17-41.7c2.2-12.5,2.5-25.2,1.1-37.8
			c-1.8-14.6-7.9-28.4-17.4-39.7c-2.1-2.5-2.3-4.5-1.4-7.4c4.9-16.5,3.1-32.7-2.9-48.5c-0.4-1.1-3-2.3-4.4-2
			c-6.5,1-13.4,1.6-19.4,4.1c-10.2,4.4-19.8,10.2-29.8,15.2c-2,1-4.3,1.4-6.6,1c-31.5-7.8-64.3-7.8-95.8,0.1c-2.1,0.4-4.3,0-6.2-1.1
			c-11.8-7.3-23.7-14.4-37.3-17.8c-4.3-0.9-8.6-1.4-13-1.7c-2-0.2-3.2,0.9-4,3c-5.6,16.3-7.2,32.7-1.9,49.4c0.4,1.4,0.1,3-0.8,4.2
			c-17.3,20.1-21.3,43.8-18.6,69.2c1.3,12.7,3.9,25,9.3,36.6c8.9,19.1,23.6,31.9,42.9,39.7c11.4,4.6,23.4,7.1,35.6,8.7
			c1.3,0.2,2.6,0.5,3.6,0.6c-2.8,4.8-5.6,9.3-8.1,14.1c-1.4,2.6-2.2,5.4-2.6,8.3c-0.4,4.2-2.6,6.1-6.5,7.3
			c-12.8,3.9-25.3,5.1-37.5-1.8c-6.5-3.8-11.8-9.2-15.6-15.7c-4.5-7.4-10-13.9-17.6-18.1c-5.8-3.2-11.9-5.6-18.7-4.3
			c-1.9,0.4-4.3,1.5-5,3c-0.5,1,1.3,3.4,2.5,4.9c1,1.2,2.3,2.2,3.7,3c11.8,7.3,18.7,18.3,23.8,30.7c8.1,19.7,23.7,28.9,44.2,30
			c8,0.5,16.2-0.8,24.6-1.2c0.1,0.8,0.2,1.5,0.3,2.3c0.1,9.7,0.3,19.5,0.3,29.2c0.1,10.8-6.3,15.2-16.5,11.6
			c-45.3-16.2-80.8-44.6-106.5-85.3C14.9,293.1,4.8,264,1.6,233.8c-0.5-4.6-1-9.2-1.6-13.8v-22.4c0.3-1,0.5-2,0.7-3.1
			c1.4-21.7,6-42.8,14.7-62.7c31.9-72.3,86.8-115.2,165.3-126c46-6.3,89.5,3.3,129.1,27.6c53,32.5,85.2,79.7,96.6,140.8
			c1.4,7.7,2.1,15.5,3.2,23.3V220z"/>
	</g>
</g>
</svg>
