<svg xmlns="http://www.w3.org/2000/svg" viewBox="0 0 409.6 401.55"><defs><style>.cls-1{fill:#fff;}</style></defs><g id="Layer_2" data-name="Layer 2"><g id="Layer_1-2" data-name="Layer 1"><g id="Layer_2-2" data-name="Layer 2"><g id="Layer_1-2-2" data-name="Layer 1-2"><path class="cls-1" d="M409.6,216c-.75,6.46-1.4,12.92-2.28,19.36a199.66,199.66,0,0,1-29.48,80.36c-19.29,30.48-44.76,54.5-76.63,71.41a278.63,278.63,0,0,1-30.31,13.3c-8.92,3.45-15.2-1.36-15.21-11.14,0-17.6.18-35.2.22-52.81,0-9.81-1.06-19.48-5.6-28.35-2-4-4.78-7.55-7.3-11.46,7.16-1.28,14.53-2.27,21.75-3.94,20.33-4.71,38.46-13.33,51.66-30.29,9.58-12.31,14.59-26.54,17-41.71a130.72,130.72,0,0,0,1.06-37.83A75.29,75.29,0,0,0,317,143.25c-2.09-2.47-2.28-4.47-1.39-7.44,4.93-16.49,3.09-32.69-2.93-48.53-.42-1.13-3-2.26-4.42-2-6.54,1-13.43,1.56-19.39,4.12-10.23,4.38-19.81,10.24-29.79,15.24a10.51,10.51,0,0,1-6.59,1,199,199,0,0,0-95.77,0,8.93,8.93,0,0,1-6.19-1c-11.79-7.34-23.71-14.39-37.34-17.75a90.34,90.34,0,0,0-13-1.7c-2-.19-3.23.86-4,3-5.56,16.31-7.2,32.7-1.91,49.42a5.09,5.09,0,0,1-.79,4.18C76.2,161.88,72.27,185.54,74.93,211c1.33,12.67,3.91,25,9.31,36.59,8.89,19.11,23.59,31.86,42.9,39.69,11.45,4.63,23.41,7.09,35.59,8.72,1.3.18,2.58.47,3.55.65-2.76,4.77-5.64,9.32-8.07,14.11a24.83,24.83,0,0,0-2.6,8.32c-.44,4.25-2.65,6.14-6.49,7.32-12.77,3.92-25.34,5.06-37.54-1.82A43.34,43.34,0,0,1,96,308.92c-4.52-7.39-10-13.85-17.63-18.14-5.77-3.24-11.89-5.62-18.66-4.32-1.88.36-4.32,1.53-5,3-.5,1,1.33,3.42,2.48,4.93a13.66,13.66,0,0,0,3.68,3c11.81,7.26,18.69,18.33,23.81,30.74,8.14,19.74,23.68,28.86,44.19,30,8,.46,16.18-.76,24.64-1.23a18.13,18.13,0,0,1,.28,2.32c.13,9.74.27,19.47.33,29.21.06,10.79-6.34,15.21-16.48,11.57q-68-24.27-106.51-85.28a198.28,198.28,0,0,1-29.57-84.9c-.51-4.6-1-9.2-1.56-13.81v-22.4a21.82,21.82,0,0,0,.67-3.09c1.42-21.72,6-42.81,14.73-62.69C47.26,55.49,102.24,12.63,180.7,1.88c46-6.3,89.5,3.33,129.13,27.62C362.8,62,395,109.16,406.41,170.32c1.44,7.69,2.14,15.52,3.19,23.29Z"/></g></g></g></g></svg>