<svg xmlns="http://www.w3.org/2000/svg" viewBox="0 0 383.47 384"><defs><style>.cls-1{fill:#fff;}</style></defs><g id="Layer_2" data-name="Layer 2"><g id="Layer_1-2" data-name="Layer 1"><g id="Layer_2-2" data-name="Layer 2"><g id="Layer_1-2-2" data-name="Layer 1-2"><path class="cls-1" d="M240.28,384H125.75l-5.14-.63c-11.5-1.3-23.14-1.88-34.48-4.05-30.47-5.82-54.32-21.69-69.87-49C6.54,313.23,3.11,294.37,1.49,275.08c-.55-6.44-1-12.89-1.49-19.33V126c.21-1.84.43-3.67.64-5.51,1.29-11.41,1.9-22.94,4-34.2C12.56,43.2,43.16,12.77,86,4.37,102.29,1.19,118.73.93,135.19.6c3.09-.07,6.18-.39,9.28-.6h95.81c4.46.23,8.93.58,13.39.67,15.85.31,31.66.9,47.17,4.59C329.31,12,352.2,26.6,366.71,52.76c9.57,17.26,14.06,36,15,55.56,2.37,51.7,2.13,103.43.54,155.15a194.44,194.44,0,0,1-4.41,37.47C368.4,342,343.12,368.25,302,378.43c-15.57,3.86-31.55,4.49-47.52,4.89C249.71,383.44,245,383.77,240.28,384ZM348.06,186.4h.49c0-14.25.45-28.52-.11-42.74-.67-16.83-1.05-33.8-3.62-50.39-4.23-27.3-20.12-45.58-47.2-52.58a158.74,158.74,0,0,0-33.13-5.24c-26.4-1.07-52.84-1.15-79.27-1.32-19.08-.12-38.17.16-57.25.46-14.1.23-28.17.85-41.93,4.49C63.8,45,48.39,58.2,41,80.4c-5.57,16.83-7,34.27-7.1,51.76-.32,40.87-.43,81.75,0,122.61a192.57,192.57,0,0,0,3.74,36.08c6.07,29.77,24,48.67,54.24,54.06a243.25,243.25,0,0,0,38.27,3.7c36.17.62,72.35.86,108.52.47,16.78-.18,33.73-1,50.28-3.62,29.22-4.6,48.25-21.79,54.8-51.06a179.84,179.84,0,0,0,4.1-34.52C348.48,235.4,348.06,210.9,348.06,186.4Z"/><path class="cls-1" d="M191.74,93.45a98.47,98.47,0,1,1-98.31,98.63v-.29C93.53,137.31,137.48,93.35,191.74,93.45Zm63.7,98.7a63.5,63.5,0,1,0,0,.34Z"/><path class="cls-1" d="M316.81,89.64a22.92,22.92,0,1,1-22.84-23h.25A22.84,22.84,0,0,1,316.81,89.64Z"/></g></g></g></g></svg>