<?xml version="1.0" encoding="utf-8"?>
<!-- Generator: Adobe Illustrator 25.4.1, SVG Export Plug-In . SVG Version: 6.00 Build 0)  -->
<svg version="1.1" id="Layer_1" xmlns="http://www.w3.org/2000/svg" xmlns:xlink="http://www.w3.org/1999/xlink" x="0px" y="0px"
	 viewBox="0 0 384 384" style="enable-background:new 0 0 384 384;" xml:space="preserve">
<g id="Layer_2_00000011031592030822629050000011649337965505563551_">
	<g id="Layer_1-2">
		<path d="M240.3,384H125.8l-5.1-0.6c-11.5-1.3-23.1-1.9-34.5-4c-30.5-5.8-54.3-21.7-69.9-49c-9.7-17.1-13.2-36-14.8-55.2
			c-0.6-6.4-1-12.9-1.5-19.3V126c0.2-1.8,0.4-3.7,0.6-5.5c1.3-11.4,1.9-22.9,4-34.2C12.6,43.2,43.2,12.8,86,4.4
			c16.3-3.2,32.7-3.4,49.2-3.8c3.1-0.1,6.2-0.4,9.3-0.6h95.8c4.5,0.2,8.9,0.6,13.4,0.7c15.8,0.3,31.7,0.9,47.2,4.6
			c28.5,6.7,51.4,21.3,65.9,47.5c9.6,17.3,14.1,36,15,55.6c2.4,51.7,2.1,103.4,0.5,155.1c-0.3,12.6-1.7,25.2-4.4,37.5
			c-9.4,41.1-34.7,67.3-75.9,77.5c-15.6,3.9-31.5,4.5-47.5,4.9C249.7,383.4,245,383.8,240.3,384z M348.1,186.4h0.5
			c0-14.2,0.5-28.5-0.1-42.7c-0.7-16.8-1-33.8-3.6-50.4c-4.2-27.3-20.1-45.6-47.2-52.6c-10.8-2.9-21.9-4.7-33.1-5.2
			c-26.4-1.1-52.8-1.2-79.3-1.3c-19.1-0.1-38.2,0.2-57.2,0.5c-14.1,0.2-28.2,0.8-41.9,4.5C63.8,45,48.4,58.2,41,80.4
			c-5.6,16.8-7,34.3-7.1,51.8c-0.3,40.9-0.4,81.8,0,122.6c0.1,12.1,1.4,24.2,3.7,36.1c6.1,29.8,24,48.7,54.2,54.1
			c12.6,2.2,25.4,3.5,38.3,3.7c36.2,0.6,72.3,0.9,108.5,0.5c16.8-0.2,33.7-1,50.3-3.6c29.2-4.6,48.2-21.8,54.8-51.1
			c2.5-11.3,3.9-22.9,4.1-34.5C348.5,235.4,348.1,210.9,348.1,186.4z"/>
		<path d="M191.7,93.4c54.4-0.1,98.5,43.9,98.6,98.3s-43.9,98.5-98.3,98.6s-98.5-43.9-98.6-98.3c0-0.1,0-0.2,0-0.3
			C93.5,137.3,137.5,93.3,191.7,93.4z M255.4,192.1c0-35.2-28.5-63.8-63.7-63.8S128,156.8,127.9,192c0,35.2,28.4,63.8,63.6,63.8
			c35.1,0.1,63.7-28.2,63.9-63.3C255.4,192.4,255.4,192.3,255.4,192.1z"/>
		<path d="M316.8,89.6c0,12.7-10.3,22.9-23,22.8s-22.9-10.3-22.8-23c0-12.7,10.3-22.9,23-22.8c0.1,0,0.2,0,0.2,0
			C306.8,66.8,316.9,77.1,316.8,89.6z"/>
	</g>
</g>
</svg>
