<?xml version="1.0" encoding="utf-8"?>
<!-- Generator: Adobe Illustrator 25.4.1, SVG Export Plug-In . SVG Version: 6.00 Build 0)  -->
<svg version="1.1" id="Layer_1" xmlns="http://www.w3.org/2000/svg" xmlns:xlink="http://www.w3.org/1999/xlink" x="0px" y="0px"
	 viewBox="0 0 409.6 409.6" style="enable-background:new 0 0 409.6 409.6;" xml:space="preserve">
<g id="Layer_2_00000129921565461127878640000014543280102461703565_">
	<g id="Layer_1-2">
		<path d="M0.6,333.7c45.8,4.1,86.3-6.9,123.1-34.5c-38.3-3.5-63.8-22.8-78.2-58.6c12.7,1.5,24.6,1.7,37.4-1.7
			c-20.2-5-36.1-14.8-48.3-30.2c-12-14.9-18.4-33.5-18.2-52.7c6.1,2.3,11.8,4.9,17.7,6.6s12.2,2.4,18.4,3.1
			C16.1,134.6,7.6,97.7,28,53.4c45.8,53.9,103.1,83.4,172.8,88.1c-0.3-8.4-1-16.3-0.8-24.2c1-34.5,27.4-67.3,60.9-75.8
			c31-7.9,58.2-0.8,81.5,21.1c1.7,1.6,3.2,2.3,5.6,1.5c8.4-2.7,17-4.6,25.2-7.7s16-7.2,24.4-11.1c-2.5,9.2-7.1,17.8-13.3,25
			c-6.2,7.1-13.4,13.4-20.1,20c14.9-1.7,29.7-6.3,45.1-12.5c-10.7,15.8-22.7,29-37.2,39.7c-3.7,2.7-4.6,5.6-4.5,10
			c0.8,38.5-7.7,75.1-24.4,109.7c-20,41.6-49.2,75.2-88.6,99.6c-28.1,17.4-58.6,27.7-91.3,32c-28.5,3.9-57.4,2.8-85.5-3.2
			C51.1,360,25.6,349.6,2.4,335C2.1,334.8,1.8,334.6,0.6,333.7z"/>
	</g>
</g>
</svg>
